<svg width="176" height="31" viewBox="0 0 176 31" fill="none" xmlns="http://www.w3.org/2000/svg">
<path d="M12.68 19.84C12.68 18.48 12.6667 17.5733 12.64 17.12C12.6133 16.48 12.5333 16 12.4 15.68C12.2667 15.3333 12.0533 15.12 11.76 15.04C11.44 14.96 11 14.92 10.44 14.92H9.88V9.28H10.44C12.76 9.28 14.5733 9.46667 15.88 9.84C17.1867 10.1867 18.16 10.7733 18.8 11.6C19.3867 12.3467 19.76 13.3467 19.92 14.6C20.1067 15.8267 20.2 17.5733 20.2 19.84C20.2 21.9467 20.1333 23.5867 20 24.76C19.8933 25.9067 19.6133 26.8533 19.16 27.6C18.6533 28.4267 17.8933 29.0533 16.88 29.48C15.8667 29.88 14.4667 30.1333 12.68 30.24V19.84ZM10.44 30.32C8.12 30.32 6.30667 30.1467 5 29.8C3.69333 29.4533 2.72 28.8667 2.08 28.04C1.49333 27.2933 1.10667 26.3067 0.92 25.08C0.76 23.8533 0.68 22.1067 0.68 19.84C0.68 17.76 0.746667 16.1333 0.88 14.96C1.01333 13.7867 1.30667 12.8133 1.76 12.04C2.24 11.1867 2.98667 10.56 4 10.16C5.01333 9.73333 6.41333 9.46667 8.2 9.36V19.84C8.2 21.2 8.21333 22.0933 8.24 22.52C8.26667 23.16 8.34667 23.64 8.48 23.96C8.61333 24.28 8.84 24.48 9.16 24.56C9.42667 24.64 9.85333 24.68 10.44 24.68H11V30.32H10.44ZM24.1706 0.279999H31.5706V30H24.1706V0.279999ZM33.2506 24.16V15.68L36.7306 9.6H44.5306L38.5306 19.28L44.6506 30H36.5706L33.2506 24.16ZM58.7775 20.36C58.7775 18.9467 58.7642 18.0133 58.7375 17.56C58.6842 16.8133 58.6175 16.32 58.5375 16.08C58.4308 15.8133 58.2442 15.6533 57.9775 15.6C57.7108 15.52 57.2842 15.48 56.6975 15.48H56.2975V10.48C57.3375 9.70667 58.6975 9.32 60.3775 9.32C62.7775 9.32 64.3908 10.0533 65.2175 11.52C65.5908 12.16 65.8442 12.9467 65.9775 13.88C66.1108 14.7867 66.1775 15.9067 66.1775 17.24V30H58.7775V20.36ZM47.2175 9.6H54.6175V30H47.2175V9.6ZM85.8531 15.16C85.3465 15.1333 84.6531 15.0667 83.7731 14.96C82.1198 14.8 80.7865 14.72 79.7731 14.72H78.4531V9.28C80.3465 9.28 82.1465 9.41333 83.8531 9.68L85.8531 10.04V15.16ZM80.0531 23.8C80.0531 23.4 79.9865 23.1467 79.8531 23.04C79.7198 22.9333 79.4398 22.8533 79.0131 22.8L74.6931 22.2C73.6265 22.04 72.7598 21.7867 72.0931 21.44C71.4531 21.0933 70.9731 20.6267 70.6531 20.04C70.3331 19.5333 70.1198 18.92 70.0131 18.2C69.9065 17.48 69.8531 16.5867 69.8531 15.52C69.8531 13.3333 70.5065 11.7333 71.8131 10.72C72.9065 9.92 74.5598 9.45333 76.7731 9.32V15.6C76.7731 16 76.8265 16.2667 76.9331 16.4C77.0398 16.5067 77.3731 16.6 77.9331 16.68L82.7331 17.32C83.4265 17.4 84.0265 17.5467 84.5331 17.76C85.0398 17.9467 85.4665 18.24 85.8131 18.64C86.5865 19.4933 86.9731 21.1333 86.9731 23.56C86.9731 26.12 86.3198 27.9067 85.0131 28.92C83.8665 29.7733 82.2131 30.2267 80.0531 30.28V23.8ZM78.3731 30.32C76.2398 30.2933 74.3731 30.16 72.7731 29.92L70.4931 29.56V24.44C71.5598 24.5467 72.9998 24.6533 74.8131 24.76C75.8265 24.8133 76.5465 24.84 76.9731 24.84H78.3731V30.32ZM90.655 0.279999H98.055V30H90.655V0.279999ZM102.215 20.36C102.215 18.9467 102.202 18.0133 102.175 17.56C102.122 16.8133 102.055 16.32 101.975 16.08C101.868 15.8133 101.682 15.6533 101.415 15.6C101.148 15.52 100.722 15.48 100.135 15.48H99.735V10.6C100.802 9.74667 102.162 9.32 103.815 9.32C106.215 9.32 107.828 10.0533 108.655 11.52C109.028 12.16 109.282 12.9467 109.415 13.88C109.548 14.7867 109.615 15.9067 109.615 17.24V30H102.215V20.36ZM125.571 19.84C125.571 18.48 125.557 17.5733 125.531 17.12C125.504 16.48 125.424 16 125.291 15.68C125.157 15.3333 124.944 15.12 124.651 15.04C124.331 14.96 123.891 14.92 123.331 14.92H122.771V9.28H123.331C125.651 9.28 127.464 9.46667 128.771 9.84C130.077 10.1867 131.051 10.7733 131.691 11.6C132.277 12.3467 132.651 13.3467 132.811 14.6C132.997 15.8267 133.091 17.5733 133.091 19.84C133.091 21.9467 133.024 23.5867 132.891 24.76C132.784 25.9067 132.504 26.8533 132.051 27.6C131.544 28.4267 130.784 29.0533 129.771 29.48C128.757 29.88 127.357 30.1333 125.571 30.24V19.84ZM123.331 30.32C121.011 30.32 119.197 30.1467 117.891 29.8C116.584 29.4533 115.611 28.8667 114.971 28.04C114.384 27.2933 113.997 26.3067 113.811 25.08C113.651 23.8533 113.571 22.1067 113.571 19.84C113.571 17.76 113.637 16.1333 113.771 14.96C113.904 13.7867 114.197 12.8133 114.651 12.04C115.131 11.1867 115.877 10.56 116.891 10.16C117.904 9.73333 119.304 9.46667 121.091 9.36V19.84C121.091 21.2 121.104 22.0933 121.131 22.52C121.157 23.16 121.237 23.64 121.371 23.96C121.504 24.28 121.731 24.48 122.051 24.56C122.317 24.64 122.744 24.68 123.331 24.68H123.891V30.32H123.331ZM145.501 17.8H148.301C148.301 16.3067 148.155 15.3467 147.861 14.92C147.701 14.68 147.488 14.5333 147.221 14.48C146.955 14.4 146.568 14.36 146.061 14.36H145.501V9.28H146.061C148.355 9.28 150.115 9.46667 151.341 9.84C152.595 10.2133 153.515 10.8267 154.101 11.68C154.635 12.4267 154.955 13.3867 155.061 14.56C155.195 15.7333 155.261 17.4933 155.261 19.84V21.44H145.501V17.8ZM146.861 30.32C144.408 30.32 142.475 30.12 141.061 29.72C139.675 29.2933 138.635 28.6267 137.941 27.72C137.328 26.92 136.928 25.9333 136.741 24.76C136.555 23.56 136.461 21.92 136.461 19.84C136.461 17.92 136.528 16.4 136.661 15.28C136.795 14.1333 137.075 13.16 137.501 12.36C137.981 11.48 138.715 10.8 139.701 10.32C140.715 9.81333 142.088 9.49333 143.821 9.36V21.44C143.821 22.3467 143.861 23 143.941 23.4C144.021 23.7733 144.208 24.0533 144.501 24.24C144.821 24.4533 145.315 24.5733 145.981 24.6C146.835 24.6533 147.741 24.68 148.701 24.68C150.408 24.68 151.648 24.64 152.421 24.56L154.461 24.4V29.56C153.395 29.88 151.928 30.0933 150.061 30.2C149.155 30.28 148.088 30.32 146.861 30.32ZM174.447 15.16C173.94 15.1333 173.247 15.0667 172.367 14.96C170.714 14.8 169.38 14.72 168.367 14.72H167.047V9.28C168.94 9.28 170.74 9.41333 172.447 9.68L174.447 10.04V15.16ZM168.647 23.8C168.647 23.4 168.58 23.1467 168.447 23.04C168.314 22.9333 168.034 22.8533 167.607 22.8L163.287 22.2C162.22 22.04 161.354 21.7867 160.687 21.44C160.047 21.0933 159.567 20.6267 159.247 20.04C158.927 19.5333 158.714 18.92 158.607 18.2C158.5 17.48 158.447 16.5867 158.447 15.52C158.447 13.3333 159.1 11.7333 160.407 10.72C161.5 9.92 163.154 9.45333 165.367 9.32V15.6C165.367 16 165.42 16.2667 165.527 16.4C165.634 16.5067 165.967 16.6 166.527 16.68L171.327 17.32C172.02 17.4 172.62 17.5467 173.127 17.76C173.634 17.9467 174.06 18.24 174.407 18.64C175.18 19.4933 175.567 21.1333 175.567 23.56C175.567 26.12 174.914 27.9067 173.607 28.92C172.46 29.7733 170.807 30.2267 168.647 30.28V23.8ZM166.967 30.32C164.834 30.2933 162.967 30.16 161.367 29.92L159.087 29.56V24.44C160.154 24.5467 161.594 24.6533 163.407 24.76C164.42 24.8133 165.14 24.84 165.567 24.84H166.967V30.32Z" fill="white"/>
</svg>
